<?xml version="1.0" encoding="utf-8"?>
<!-- Generator: Adobe Illustrator 18.0.0, SVG Export Plug-In . SVG Version: 6.00 Build 0)  -->
<!DOCTYPE svg PUBLIC "-//W3C//DTD SVG 1.1//EN" "http://www.w3.org/Graphics/SVG/1.1/DTD/svg11.dtd">
<svg version="1.1" xmlns="http://www.w3.org/2000/svg" xmlns:xlink="http://www.w3.org/1999/xlink" x="0px" y="0px"
	 viewBox="0 0 612 792" enable-background="new 0 0 612 792" xml:space="preserve">
<g id="Layer_1" display="none">
	<polygon display="inline" fill="#418088" points="271.2,184.2 546.6,661 485.4,661 179.4,131 543,131 420.6,342.8 390,290.1 
		451.2,184.2 	"/>
	<polygon display="inline" fill="#842823" points="120.6,131 426.6,661 63,661 185.4,449.2 216,501.9 154.8,607.8 334.8,607.8 
		59.4,131 	"/>
</g>
<g id="Layer_2">
	<ellipse fill="none" stroke="#231F20" stroke-miterlimit="10" cx="244.8" cy="607.8" rx="90" ry="0"/>
	<line fill="none" stroke="#231F20" stroke-miterlimit="10" x1="86.4" y1="661" x2="426.6" y2="661"/>
	<line fill="none" stroke="#231F20" stroke-miterlimit="10" x1="120.6" y1="131" x2="426.6" y2="661"/>
	<line fill="none" stroke="#231F20" stroke-miterlimit="10" x1="90" y1="143.7" x2="369.5" y2="627.9"/>
	<line fill="none" stroke="#231F20" stroke-miterlimit="10" x1="59.4" y1="131" x2="334.8" y2="607.8"/>
	<line fill="none" stroke="#231F20" stroke-miterlimit="10" x1="334.8" y1="607.8" x2="369.5" y2="627.9"/>
	<line fill="none" x1="59.4" y1="131" x2="120.6" y2="131"/>
	<line fill="none" stroke="#231F20" stroke-miterlimit="10" x1="120.6" y1="131" x2="90" y2="118.3"/>
	<line fill="none" stroke="#231F20" stroke-miterlimit="10" x1="59.4" y1="131" x2="90" y2="118.3"/>
	<line fill="none" stroke="#231F20" stroke-miterlimit="10" x1="120.6" y1="131" x2="90" y2="143.7"/>
	<line fill="none" stroke="#231F20" stroke-miterlimit="10" x1="59.4" y1="131" x2="90" y2="143.7"/>
	<ellipse fill="none" stroke="#231F20" stroke-miterlimit="10" cx="256.4" cy="627.9" rx="113.2" ry="0"/>
	<line fill="none" stroke="#231F20" stroke-miterlimit="10" x1="231.7" y1="474.8" x2="201.1" y2="462.1"/>
	<line fill="none" stroke="#231F20" stroke-miterlimit="10" x1="170.5" y1="474.8" x2="201.1" y2="462.1"/>
	<line fill="none" stroke="#231F20" stroke-miterlimit="10" x1="143.2" y1="627.9" x2="231.7" y2="474.8"/>
	<line fill="none" stroke="#231F20" stroke-miterlimit="10" x1="170.5" y1="474.8" x2="67.5" y2="652.7"/>
	<line fill="none" stroke="#231F20" stroke-miterlimit="10" x1="201.1" y1="462.1" x2="86.4" y2="661"/>
	<line fill="none" stroke="#231F20" stroke-miterlimit="10" x1="86.4" y1="661.5" x2="67.5" y2="652.7"/>
</g>
</svg>
