<?xml version="1.0" encoding="utf-8"?>
<!-- Generator: Adobe Illustrator 18.0.0, SVG Export Plug-In . SVG Version: 6.00 Build 0)  -->
<!DOCTYPE svg PUBLIC "-//W3C//DTD SVG 1.1//EN" "http://www.w3.org/Graphics/SVG/1.1/DTD/svg11.dtd">
<svg version="1.1" id="Layer_1" xmlns="http://www.w3.org/2000/svg" xmlns:xlink="http://www.w3.org/1999/xlink" x="0px" y="0px"
	 viewBox="0 0 612 792" enable-background="new 0 0 612 792" xml:space="preserve">
<g id="Layer_1_1_">
	<polygon fill="#418088" points="271.2,184.2 527.6,628.3 508.8,660.9 485.4,661 179.4,131 505.4,130.9 536,143.5 416.6,349.9 
		393,349.9 374.2,317.3 451.2,184.2 	"/>
	<polygon fill="#842823" points="97.3,131 127.9,143.7 426.6,661 86.4,661 67.5,652.7 189.3,442.2 212.9,442.2 231.7,474.8 
		154.8,607.8 334.8,607.8 59.4,131 	"/>
</g>
<g id="Layer_4">
	<polyline fill="#FA8591" points="59.4,131 334.8,607.8 369.5,627.9 90,143.7 	"/>
	<polyline fill="#85A5AE" points="179.5,131.4 485.4,660.9 508.8,660.9 210.1,144.1 	"/>
	<polyline fill="#85A5AE" points="474.7,184.3 397.8,317.3 374.2,317.3 451.1,184.4 	"/>
	<polyline fill="#FA8591" points="212.9,442.2 86.4,661 67.5,652.7 189.3,442.2 	"/>
</g>
<g id="Layer_2">
	<ellipse fill="none" stroke="#231F20" stroke-width="5" stroke-miterlimit="10" cx="244.8" cy="607.8" rx="0" ry="90"/>
	<line fill="none" stroke="#231F20" stroke-width="5" stroke-miterlimit="10" x1="86.4" y1="661" x2="426.6" y2="661"/>
	<line fill="none" stroke="#231F20" stroke-width="5" stroke-miterlimit="10" x1="127.9" y1="143.7" x2="426.6" y2="661"/>
	<line fill="none" stroke="#231F20" stroke-width="5" stroke-miterlimit="10" x1="90" y1="143.7" x2="369.5" y2="627.9"/>
	<line fill="none" stroke="#231F20" stroke-width="5" stroke-miterlimit="10" x1="59.4" y1="131" x2="334.8" y2="607.8"/>
	<line fill="none" x1="59.4" y1="131" x2="120.6" y2="131"/>
	<line fill="none" stroke="#231F20" stroke-width="5" stroke-miterlimit="10" x1="127.9" y1="143.7" x2="97.3" y2="131"/>
	<line fill="none" stroke="#231F20" stroke-width="5" stroke-miterlimit="10" x1="59.4" y1="131" x2="90" y2="143.7"/>
	<ellipse fill="none" stroke="#231F20" stroke-width="5" stroke-miterlimit="10" cx="256.4" cy="627.9" rx="0" ry="113.2"/>
	<line fill="none" stroke="#231F20" stroke-width="5" stroke-miterlimit="10" x1="143.2" y1="627.9" x2="231.7" y2="474.8"/>
	<line fill="none" stroke="#231F20" stroke-width="5" stroke-miterlimit="10" x1="189.3" y1="442.2" x2="67.5" y2="652.7"/>
	<line fill="none" stroke="#231F20" stroke-width="5" stroke-miterlimit="10" x1="212.6" y1="442.2" x2="86.4" y2="661"/>
	<line fill="none" stroke="#231F20" stroke-width="5" stroke-miterlimit="10" x1="86.4" y1="661.5" x2="67.5" y2="652.7"/>
	<polyline fill="none" stroke="#231F20" stroke-width="5" stroke-miterlimit="10" points="59.4,131 90,143.7 127.9,143.7 	"/>
	<ellipse fill="none" stroke="#231F20" stroke-width="5" stroke-miterlimit="10" cx="78.3" cy="131" rx="0" ry="19"/>
	<line fill="none" stroke="#231F20" stroke-width="5" stroke-miterlimit="10" x1="212.9" y1="442.2" x2="231.7" y2="474.8"/>
	<ellipse fill="none" stroke="#231F20" stroke-width="5" stroke-miterlimit="10" cx="201.1" cy="442.2" rx="0" ry="11.8"/>
	<polyline fill="#FA8591" stroke="#231F20" stroke-width="5" stroke-miterlimit="10" points="369.5,627.9 143.2,627.9 154.8,607.8 
		334.8,607.8 369.5,627.9 	"/>
</g>
<g id="Layer_3">
	<g>
		<line fill="none" stroke="#231F20" stroke-width="5" stroke-miterlimit="10" x1="210.1" y1="143.5" x2="179.5" y2="130.9"/>
		<line fill="none" stroke="#231F20" stroke-width="5" stroke-miterlimit="10" x1="536" y1="143.5" x2="505.4" y2="130.9"/>
		<ellipse fill="none" stroke="#231F20" stroke-width="5" stroke-miterlimit="10" cx="372.9" cy="184.4" rx="0" ry="101.8"/>
		<line fill="none" stroke="#231F20" stroke-width="5" stroke-miterlimit="10" x1="179.5" y1="131.4" x2="485.4" y2="661.1"/>
		<line fill="none" stroke="#231F20" stroke-width="5" stroke-miterlimit="10" x1="508.8" y1="660.9" x2="210.1" y2="143.5"/>
		<line fill="none" stroke="#231F20" stroke-width="5" stroke-miterlimit="10" x1="527.6" y1="628.3" x2="271.2" y2="184.4"/>
		<line fill="none" x1="546.6" y1="661.1" x2="485.4" y2="661.1"/>
		<polyline fill="none" stroke="#231F20" stroke-width="5" stroke-miterlimit="10" points="374.2,317.3 451.1,184.4 474.7,184.3 
			397.8,317.3 		"/>
		<line fill="none" stroke="#231F20" stroke-width="5" stroke-miterlimit="10" x1="416.6" y1="349.9" x2="536" y2="143.5"/>
		<line fill="none" stroke="#231F20" stroke-width="5" stroke-miterlimit="10" x1="393" y1="349.9" x2="374.2" y2="317.3"/>
		<ellipse fill="none" stroke="#231F20" stroke-width="5" stroke-miterlimit="10" cx="404.8" cy="349.9" rx="0" ry="11.8"/>
		<line fill="none" stroke="#231F20" stroke-width="5" stroke-miterlimit="10" x1="485.4" y1="660.9" x2="508.8" y2="660.9"/>
		<line fill="none" stroke="#231F20" stroke-width="5" stroke-miterlimit="10" x1="508.8" y1="660.9" x2="527.6" y2="628.3"/>
		<line fill="none" stroke="#231F20" stroke-width="5" stroke-miterlimit="10" x1="397.8" y1="317.3" x2="416.6" y2="349.9"/>
		<ellipse fill="none" stroke="#231F20" stroke-width="5" stroke-miterlimit="10" cx="386" cy="317.3" rx="0" ry="11.8"/>
		<line fill="none" stroke="#231F20" stroke-width="5" stroke-miterlimit="10" x1="536" y1="143.5" x2="210.1" y2="143.5"/>
		<line fill="none" stroke="#231F20" stroke-width="5" stroke-miterlimit="10" x1="505.4" y1="130.9" x2="179.5" y2="130.9"/>
	</g>
	<line fill="none" stroke="#231F20" stroke-width="5" stroke-miterlimit="10" x1="374.2" y1="317.3" x2="397.8" y2="317.3"/>
</g>
</svg>
