<?xml version="1.0" encoding="utf-8"?>
<!-- Generator: Adobe Illustrator 18.0.0, SVG Export Plug-In . SVG Version: 6.00 Build 0)  -->
<!DOCTYPE svg PUBLIC "-//W3C//DTD SVG 1.1//EN" "http://www.w3.org/Graphics/SVG/1.1/DTD/svg11.dtd">
<svg version="1.1" id="Layer_1" xmlns="http://www.w3.org/2000/svg" xmlns:xlink="http://www.w3.org/1999/xlink" x="0px" y="0px"
	 viewBox="0 0 40 40" enable-background="new 0 0 40 40" xml:space="preserve">
<g>
	<g>
		<path fill="#959595" d="M20,2.3c9.9,0,18,8.1,18,18s-8.1,18-18,18s-18-8.1-18-18S10.1,2.3,20,2.3 M20,0.3c-11,0-20,9-20,20
			c0,11,9,20,20,20s20-9,20-20C40,9.3,31,0.3,20,0.3L20,0.3z"/>
	</g>
	<path fill="#959595" d="M31.5,13.2c-0.8,0.4-1.8,0.6-2.7,0.7c1-0.6,1.7-1.5,2.1-2.6c-0.9,0.5-1.9,0.9-3,1.1
		C27,11.6,25.8,11,24.4,11c-2.6,0-4.7,2.1-4.7,4.7c0,0.4,0,0.7,0.1,1.1c-3.9-0.2-7.4-2.1-9.7-4.9c-0.4,0.7-0.6,1.5-0.6,2.4
		c0,1.6,0.8,3.1,2.1,3.9c-0.8,0-1.5-0.2-2.1-0.6c0,0,0,0,0,0.1c0,2.3,1.6,4.2,3.8,4.6c-0.4,0.1-0.8,0.2-1.2,0.2
		c-0.3,0-0.6,0-0.9-0.1c0.6,1.9,2.3,3.2,4.4,3.3c-1.6,1.3-3.7,2-5.9,2c-0.4,0-0.8,0-1.1-0.1c2.1,1.3,4.6,2.1,7.2,2.1
		c8.7,0,13.4-7.2,13.4-13.4c0-0.2,0-0.4,0-0.6C30.1,15,30.9,14.2,31.5,13.2z"/>
</g>
</svg>
