<?xml version="1.0" standalone="no"?>
<!DOCTYPE svg PUBLIC "-//W3C//DTD SVG 20010904//EN"
 "http://www.w3.org/TR/2001/REC-SVG-20010904/DTD/svg10.dtd">
<svg version="1.0" xmlns="http://www.w3.org/2000/svg"
 width="700.000000pt" height="700.000000pt" viewBox="0 0 700.000000 700.000000"
 preserveAspectRatio="xMidYMid meet">
<metadata>
Created by potrace 1.11, written by Peter Selinger 2001-2013
</metadata>
<g transform="translate(0.000000,700.000000) scale(0.100000,-0.100000)"
fill="#000000" stroke="none">
<path d="M698 6498 c39 -64 332 -573 382 -663 19 -33 41 -71 50 -85 9 -14 31
-50 47 -80 17 -30 76 -133 132 -229 55 -95 101 -175 101 -177 0 -1 32 -55 70
-120 39 -64 70 -118 70 -120 0 -1 47 -83 105 -182 110 -190 424 -732 458 -792
11 -19 86 -150 167 -290 81 -140 156 -271 167 -290 11 -19 112 -195 225 -390
113 -195 214 -369 224 -387 11 -18 57 -98 104 -179 47 -81 96 -166 108 -188
61 -106 390 -674 454 -784 26 -45 48 -87 48 -92 0 -6 5 -10 10 -10 6 0 10 -4
10 -9 0 -5 45 -86 99 -180 75 -129 95 -171 83 -172 -23 0 -1991 0 -2021 0 -17
1 -21 4 -13 14 5 6 20 30 32 52 12 22 105 183 207 358 101 175 192 332 202
350 10 18 71 123 135 234 l117 203 -172 295 c-94 162 -175 295 -178 295 -4 0
-18 -19 -31 -42 -30 -52 -29 -50 -160 -278 -58 -100 -113 -196 -124 -213 -17
-30 -293 -507 -486 -842 -48 -82 -122 -211 -165 -285 -43 -74 -89 -155 -103
-180 -14 -25 -33 -57 -43 -72 -11 -14 -19 -28 -19 -31 0 -4 -175 -309 -200
-347 -5 -8 -23 -39 -39 -68 l-29 -52 2078 0 2078 0 -140 243 c-77 133 -150
260 -163 282 -12 22 -32 56 -43 75 -12 19 -27 46 -35 60 -12 22 -519 901 -672
1165 -32 55 -149 258 -260 450 -111 193 -244 422 -295 510 -51 88 -104 180
-118 205 -22 39 -125 218 -430 745 -41 72 -140 243 -220 380 -80 138 -158 275
-175 305 -16 30 -33 60 -37 65 -13 17 -150 257 -150 262 0 3 -8 17 -19 31 -10
15 -29 47 -43 72 -25 44 -139 242 -511 885 l-185 320 -352 3 -352 2 20 -32z"/>
<path d="M2143 6493 c13 -21 37 -63 54 -93 17 -30 112 -197 213 -370 101 -173
192 -331 203 -350 26 -46 685 -1191 697 -1210 30 -51 107 -182 128 -220 14
-25 81 -142 150 -260 69 -118 134 -232 146 -253 11 -21 26 -46 31 -55 10 -17
69 -119 285 -492 169 -292 596 -1031 618 -1070 10 -19 70 -122 131 -228 61
-106 120 -207 130 -225 10 -17 85 -147 166 -287 81 -140 157 -273 170 -295
125 -218 348 -602 354 -608 4 -4 163 -6 353 -5 l346 3 -48 82 c-27 45 -62 106
-78 135 -17 29 -78 136 -137 238 -59 102 -119 206 -134 231 -32 56 -190 330
-212 367 -9 15 -27 47 -41 72 -14 25 -65 113 -113 195 -48 83 -99 170 -113
195 -14 25 -89 155 -167 290 -167 289 -514 890 -543 940 -10 19 -60 105 -110
190 -94 161 -437 755 -669 1158 -74 129 -143 248 -153 265 -10 18 -31 54 -45
81 -15 27 -35 61 -45 75 -16 24 -326 560 -392 679 -17 30 -56 99 -89 153 l-58
99 32 0 c40 1 1963 1 1999 0 26 0 26 -1 -53 -137 -43 -76 -83 -145 -88 -153
-5 -8 -50 -85 -99 -170 -49 -85 -138 -238 -197 -340 -125 -215 -133 -229 -192
-334 l-45 -78 35 -57 c19 -31 96 -163 172 -293 75 -131 140 -238 144 -238 4 0
18 19 32 43 13 23 29 51 36 62 7 11 16 27 20 35 4 8 27 49 51 90 25 41 54 91
65 110 29 52 376 654 560 970 88 151 171 295 184 320 14 25 38 65 53 90 15 25
98 169 185 320 87 151 171 296 186 323 l29 47 -2080 0 -2080 0 23 -37z"/>
</g>
</svg>
