<?xml version="1.0" encoding="utf-8"?>
<!-- Generator: Adobe Illustrator 18.0.0, SVG Export Plug-In . SVG Version: 6.00 Build 0)  -->
<!DOCTYPE svg PUBLIC "-//W3C//DTD SVG 1.1//EN" "http://www.w3.org/Graphics/SVG/1.1/DTD/svg11.dtd">
<svg version="1.1" id="Layer_1" xmlns="http://www.w3.org/2000/svg" xmlns:xlink="http://www.w3.org/1999/xlink" x="0px" y="0px"
	 viewBox="0 0 40 40" enable-background="new 0 0 40 40" xml:space="preserve">
<g>
	<g>
		<g>
			<path fill="#959595" d="M20,2c9.9,0,18,8.1,18,18s-8.1,18-18,18S2,29.9,2,20S10.1,2,20,2 M20,0C9,0,0,9,0,20c0,11,9,20,20,20
				c11,0,20-9,20-20C40,9,31,0,20,0L20,0z"/>
		</g>
	</g>
	<g transform="translate(0.000000,300.000000) scale(0.100000,-0.100000)">
		<path id="node1" fill="#959595" d="M192.4,2931.9c-2.1-1.2-9.3-7.8-16.2-14.6l-12.6-12.6l15-15.1l15-15l5.4,0.3
			c13,0.8,23.6-10,22.1-22.6l-0.5-4.8L235,2833l14.5-14.5l3.7,0.5c19.5,2.9,31.3-20.3,18-35.1c-2.6-2.9-10.2-6.3-14-6.3
			c-7.9,0-15.5,4.6-19,11.8c-2.4,4.8-3.1,12.3-1.4,15c0.6,1.1-2.1,4.2-12.3,14.6c-7.2,7.2-13.4,13.1-13.8,13.1
			c-0.4,0-0.7-15.8-0.7-35.1v-35.2l3.7-2.9c5.3-4.2,8.3-11.2,7.7-17.4c-1.5-15.2-16.4-23.6-29.9-16.9c-13.8,6.9-15.2,26-2.4,35.2
			l3,2.2l0.1,36.6v36.7l-2.8,1.6c-6.5,3.8-10.9,14.5-8.9,21.5l1,3.6l-15.1,15.1l-15,15l-40.5-40.5c-25-25.1-41.3-42-42.5-44.4
			c-2.6-4.9-2.6-9,0.1-14.3c3.3-6.3,120-122.6,125.6-125.1c4.8-2.2,8.2-2.2,12.8-0.3c5.1,2.3,123.5,120.8,125.8,125.9
			c2.1,4.9,2.1,7.7-0.2,12.7c-2.5,5.5-118.9,122.3-125.1,125.6C201.7,2934.5,197,2934.5,192.4,2931.9z"/>
	</g>
</g>
</svg>
