<?xml version="1.0" encoding="utf-8"?>
<!-- Generator: Adobe Illustrator 18.0.0, SVG Export Plug-In . SVG Version: 6.00 Build 0)  -->
<!DOCTYPE svg PUBLIC "-//W3C//DTD SVG 1.1//EN" "http://www.w3.org/Graphics/SVG/1.1/DTD/svg11.dtd">
<svg version="1.1" id="Layer_1" xmlns="http://www.w3.org/2000/svg" xmlns:xlink="http://www.w3.org/1999/xlink" x="0px" y="0px"
	 viewBox="0 0 612 300" enable-background="new 0 0 612 300" xml:space="preserve">
<path fill="none" d="z"/>
<g id="Layer_1_1_">
	<polygon fill="#418088" points="292.8,72.9 389.9,241.1 382.8,253.4 374,253.5 258,52.7 381.5,52.7 393.1,57.5 347.9,135.6 
		339,135.6 331.8,123.3 361,72.9 	"/>
	<polygon fill="#842823" points="226.9,52.7 238.5,57.5 351.7,253.5 222.8,253.5 215.7,250.3 261.8,170.6 270.7,170.6 277.9,183 
		248.7,233.3 316.9,233.3 212.6,52.7 	"/>
</g>
<g id="Layer_4">
	<polyline fill="#EED1B7" points="212.6,52.7 316.9,233.3 330.1,240.9 224.2,57.5 	"/>
	<polyline fill="#85A5AE" points="393.1,57.5 381.5,52.7 258,52.7 374,253.4 382.8,253.4 269.7,57.7 	"/>
	<polyline fill="#85A5AE" points="369.9,72.9 340.8,123.3 331.8,123.3 361,73 	"/>
	<polyline fill="#EED1B7" points="270.7,170.6 222.8,253.5 215.7,250.3 261.8,170.6 	"/>
</g>
<g id="Layer_2">
	<path fill="#EED1B7" d="M282.8,199.2"/>
	<path fill="#EED1B7" d="M282.8,233.3"/>
	<path fill="#EED1B7" d="M282.8,233.3"/>
	<line fill="#EED1B7" x1="222.8" y1="253.5" x2="351.7" y2="253.5"/>
	<line fill="#EED1B7" x1="238.5" y1="57.5" x2="351.7" y2="253.5"/>
	<line fill="#EED1B7" x1="224.2" y1="57.5" x2="330.1" y2="240.9"/>
	<line fill="#EED1B7" x1="212.6" y1="52.7" x2="316.9" y2="233.3"/>
	<line fill="#EED1B7" x1="212.6" y1="52.7" x2="235.8" y2="52.7"/>
	<polyline fill="#EED1B7" points="212.6,52.7 224.2,57.5 238.5,57.5 226.9,52.7 238.5,57.5 	"/>
	<polyline fill="#EED1B7" points="212.6,52.7 226.9,52.7 238.5,57.5 224.2,57.5 	"/>
	<path fill="#EED1B7" d="M287.2,240.9"/>
	<path fill="#EED1B7" d="M287.2,283.8"/>
	<path fill="#EED1B7" d="M287.2,240.9"/>
	<path fill="#EED1B7" d="M287.2,198.1"/>
	<line fill="#EED1B7" x1="244.3" y1="240.9" x2="277.9" y2="183"/>
	<line fill="#EED1B7" x1="261.8" y1="170.6" x2="215.7" y2="250.3"/>
	<line fill="#EED1B7" x1="270.6" y1="170.6" x2="222.8" y2="253.5"/>
	<line fill="#EED1B7" x1="222.8" y1="253.7" x2="215.7" y2="250.3"/>
	<ellipse fill="#EED1B7" cx="219.8" cy="52.7" rx="0" ry="7.2"/>
	<line fill="#EED1B7" x1="270.7" y1="170.6" x2="277.9" y2="183"/>
	<path fill="#EED1B7" d="M266.3,170.6c0,2.5,0,4.5,0,4.5S266.3,173.1,266.3,170.6"/>
	<polyline fill="#EED1B7" points="330.1,240.9 244.3,240.9 248.7,233.3 316.9,233.3 330.1,240.9 	"/>
</g>
<path fill="none" d="z"/>
</svg>
